<svg version="1.1" id="balance-icon" xmlns="http://www.w3.org/2000/svg" xmlns:xlink="http://www.w3.org/1999/xlink" x="0px" y="0px"
							 width="65px" height="65px" viewBox="0 0 65 65" enable-background="new 0 0 65 65" xml:space="preserve">
						<g>
							<path fill="#FFFFFF" stroke="#000000" stroke-width="2" stroke-miterlimit="10" d="M58.983,14c1.022,0,1.858,1.479,1.858,2.5
								S60.005,19,58.983,19H39.469H37v29.932v10.995c0,1.282-1.218,2.323-2.5,2.323S32,61.209,32,59.927V49.009V37.625l0,0l-8.166,5.331
								l6.723,6.247c1.11,0.642,1.611,2.063,0.97,3.174c-0.641,1.11-2.001,1.492-3.112,0.851c0,0-6.703-5.819-8.888-8.004
								c-1.625-1.625-2.679-3.687-0.906-4.919c1.909-1.328,6.38-4.538,6.38-4.538C25,28.315,25,19,25,19H6.017
								c-1.022,0-1.774-1.605-1.774-2.627S4.995,14,6.017,14H58.983z"/>
						</g>
						<path fill="none" stroke="#000000" stroke-width="2" stroke-miterlimit="10" d="M62.438-66.262c0,28.312-29.25,41.351-29.25,41.351
							S3.562-37.762,3.562-66.262c0-8.078,6.547-14.494,14.625-14.494S32.812-74,32.812-66h0.375c0-8,6.547-14.756,14.625-14.756
							S62.438-74.34,62.438-66.262z"/>
						<path fill="none" stroke="#000000" stroke-width="2" stroke-miterlimit="10" d="M149.5-59.25c0,4.51-2.27,8.49-5.73,10.86
							c-0.159,0.18-0.329,0.35-0.52,0.51c-1.15,0.99-2.48,1.92-4.04,1.65c-0.41-0.07-0.7-0.04-0.92,0.07
							c-0.75,7.03-6.01,12.72-12.84,14.09c-3.53,1.72-7.13,2.81-11.28,2.2c-1.97-0.29-3.82-0.81-5.84-0.83
							c-1.82-0.02-3.79,0.87-5.561,0.26c-1.979-0.67-3.979-3.2-5.35-4.72c-1.65-1.83-3.01-3.89-3.92-6.18c-0.58-1.47-1.34-2.96-2-4.36
							c-0.71-1.48-1.08-3.02-1.5-4.55c-0.42-1.54-0.52-3.07-0.86-4.62c-0.52-2.39-0.8-4.83-0.899-7.27c-0.04-0.93,0.13-1.93-0.03-2.83
							c-0.2-1.2-0.04-2.14,0.22-3.33c0.29-1.32,0.721-2.59,1.271-3.83c1.04-2.3,2.18-4.68,4.47-6.17c1.21-0.78,2.17-0.57,3.5-0.9
							c1.14-0.29,2.311-1.03,3.63-0.6c1.431,0.48,4.01,3.11,4.74,4.46c0.91,1.67-0.18,4.71-2.18,4.86c-0.08,1.32-0.78,2.02-2.17,2
							c-0.2,1.75-1.94,1.17-3,0.59c-0.671-0.36-1.471-1.34-2.091-0.35c-0.42,0.68,0.141,1.63,0.271,2.34c0.38,2.12,1.34,4.21,2.77,5.83
							c0.63,0.7,1.41,1.36,2.08,2.02c0.391,0.37,0.82,0.68,1.141,1.13c0.479,0.67,0.81,1.37,1.409,1.97c1.061,1.07,1.811,2.12,2.431,3.51
							c0.26,0.58,0.6,1.12,0.88,1.69c0.229,0.46-0.096,1.02,0.274,1.4c0.101-0.9,0.146-1.73,0.146-2.52v-0.01
							c1-4.74,5.205-8.37,10.145-8.37c1.101,0,2.333,0.18,3.323,0.52c0.649,0,1.21,0.02,1.21,0.02s0.356-0.81,0.576-1.61
							c0.54-6.75,6.214-12.06,13.104-12.06C143.598-72.38,149.5-66.5,149.5-59.25z"/>
						<circle fill="none" stroke="#000000" stroke-width="2" stroke-miterlimit="10" cx="113.117" cy="19.693" r="6.761"/>
						<g>
							<path fill="none" stroke="#000000" stroke-width="2" stroke-miterlimit="10" d="M148,29.83c0,0,0,17.096,0,22.795
								c0,1.25-1.499,1.902-1.499,1.902L89.4,56c-0.011,0-0.011,0-0.021,0c-1.59,0-2.89-1.95-2.899-3.54c-0.011-1.6,1.689-3.24,3.279-3.25
								l24.11-0.345L106,35v8.74c0,1.6-0.9,2.899-2.5,2.899s-2.5-1.3-2.5-2.899V30.49c0-1.37,1.479-1.49,2.729-1.49c0.21,0,0.74,0,0.971,0
								h31.05c1.6,0,2.9,0.9,2.9,2.5s-1.301,2.5-2.9,2.5h-14.04l8.2,15.1l11.587-0.446c0,0,1.503-0.278,1.503-1.778
								c0-4.262,0-17.045,0-17.045c0-1.59,0.9-2.89,2.5-2.89S148,28.24,148,29.83z"/>
						</g>
						<circle fill="#FFFFFF" stroke="#000000" stroke-width="2" stroke-miterlimit="10" cx="32.654" cy="7.045" r="4.878"/>
						<g>
							<path fill="#FFFFFF" stroke="#000000" stroke-width="2" stroke-miterlimit="10" d="M-31,18v17c0,1.1-0.75,2.939-2.471,2.939
								C-35.132,37.939-36,36.1-36,35v24.93c0,1.28-1.22,2.32-2.5,2.32s-2.5-1.04-2.5-2.32V38h-1.5l0.06,21.92
								c0,1.28-1.27,2.285-2.55,2.285c-1.29,0-2.82-1.062-2.82-2.353L-48,35.77c0-0.765,0-0.77,0-0.77c0,1.1-0.5,2.945-2.506,2.945
								C-52.583,37.945-53,36.1-53,35V18c0-2.666,2.65-3,3.75-3c0.5,0,15.5,0,16,0C-32.15,15-31,15.501-31,18z"/>
						</g>
						<circle fill="#FFFFFF" stroke="#000000" stroke-width="2" stroke-miterlimit="10" cx="-40.346" cy="8.045" r="4.878"/>
						<circle fill="#FFFFFF" stroke="#000000" stroke-width="2" stroke-miterlimit="10" cx="-44.886" cy="21.115" r="2.423"/>
						<circle fill="#FFFFFF" stroke="#000000" stroke-width="2" stroke-miterlimit="10" cx="-38.281" cy="29.721" r="2.423"/>
						<line fill="none" stroke="#000000" stroke-width="2" stroke-miterlimit="10" x1="-47.309" y1="31.144" x2="-35.858" y2="19.692"/>
					</svg>
