<svg version="1.1" id="flexibility-icon" xmlns="http://www.w3.org/2000/svg" xmlns:xlink="http://www.w3.org/1999/xlink" x="0px" y="0px"
							 width="65px" height="65px" viewBox="0 0 65 65" enable-background="new 0 0 65 65" xml:space="preserve">
						<g>
							<path fill="#FFFFFF" stroke="#000000" stroke-miterlimit="10" stroke-width="2" d="M-26.017,14.5c1.022,0,1.858,0.979,1.858,2s-0.836,2-1.858,2
								h-19.514H-47.5v30.432v10.995c0,1.282-1.218,2.323-2.5,2.323s-2.5-1.041-2.5-2.323V49.009V37.625l0,0l-8.416,5.331l6.598,6.247
								c1.11,0.642,1.549,2.063,0.907,3.174c-0.641,1.11-2.033,1.492-3.144,0.851c0,0-6.719-5.819-8.903-8.004
								c-1.625-1.625-2.437-3.687-0.664-4.919c1.909-1.328,6.622-4.538,6.622-4.538c0-7.451,0-17.267,0-17.267h-19.483
								c-1.022,0-1.858-0.979-1.858-2s0.836-2,1.858-2H-26.017z"/>
						</g>
						<path fill="none" stroke="#000000" stroke-miterlimit="10" stroke-width="2" d="M-22.562-66.262c0,28.312-29.25,41.351-29.25,41.351
							s-29.625-12.851-29.625-41.351c0-8.078,6.547-14.744,14.625-14.744S-52.188-74.5-52.188-66.5h0.375c0-8,6.547-14.506,14.625-14.506
							S-22.562-74.34-22.562-66.262z"/>
						<path fill="none" stroke="#000000" stroke-miterlimit="10" stroke-width="2" d="M64.5-59.25c0,4.51-2.27,8.49-5.73,10.86
							c-0.159,0.18-0.329,0.35-0.52,0.51c-1.15,0.99-2.48,1.92-4.04,1.65c-0.41-0.07-0.7-0.04-0.92,0.07
							c-0.75,7.03-6.01,12.72-12.84,14.09c-3.53,1.72-7.13,2.81-11.28,2.2c-1.97-0.29-3.82-0.81-5.84-0.83
							c-1.82-0.02-3.79,0.87-5.561,0.26c-1.979-0.67-3.979-3.2-5.35-4.72c-1.65-1.83-3.01-3.89-3.92-6.18c-0.58-1.47-1.34-2.96-2-4.36
							c-0.71-1.48-1.08-3.02-1.5-4.55c-0.42-1.54-0.52-3.07-0.86-4.62c-0.52-2.39-0.8-4.83-0.899-7.27c-0.04-0.93,0.13-1.93-0.03-2.83
							c-0.2-1.2-0.04-2.14,0.22-3.33c0.29-1.32,0.721-2.59,1.271-3.83c1.04-2.3,2.18-4.68,4.47-6.17c1.21-0.78,2.17-0.57,3.5-0.9
							c1.14-0.29,2.311-1.03,3.63-0.6c1.431,0.48,4.01,3.11,4.74,4.46c0.91,1.67-0.18,4.71-2.18,4.86c-0.08,1.32-0.78,2.02-2.17,2
							c-0.2,1.75-1.94,1.17-3,0.59c-0.671-0.36-1.471-1.34-2.091-0.35c-0.42,0.68,0.141,1.63,0.271,2.34c0.38,2.12,1.34,4.21,2.77,5.83
							c0.63,0.7,1.41,1.36,2.08,2.02c0.391,0.37,0.82,0.68,1.141,1.13c0.479,0.67,0.81,1.37,1.409,1.97c1.061,1.07,1.811,2.12,2.431,3.51
							c0.26,0.58,0.6,1.12,0.88,1.69c0.229,0.46,0.154,1.02,0.524,1.4c0.101-0.9,0.396-1.73,0.396-2.52v-0.01
							c1-4.74,4.955-8.37,9.895-8.37c1.101,0,2.208,0.18,3.198,0.52c0.649,0,1.147,0.02,1.147,0.02s0.325-0.81,0.545-1.61
							c0.54-6.75,6.198-12.06,13.088-12.06C58.613-72.38,64.5-66.5,64.5-59.25z"/>
						<circle fill="none" stroke="#000000" stroke-miterlimit="10" stroke-width="2" cx="28.117" cy="19.693" r="6.761"/>
						<g>
							<path fill="none" stroke="#000000" stroke-miterlimit="10" stroke-width="2" d="M63.5,29.83c0,0,0,17.096,0,22.795c0,1.25-1.749,1.652-1.749,1.652
								L4.4,55.5c-0.011,0-0.011,0-0.021,0c-1.59,0-2.89-1.7-2.899-3.29c-0.011-1.6,1.689-3.115,3.279-3.125l24.36-0.282L21.5,35v8.74
								c0,1.6-0.9,2.899-2.5,2.899s-2.5-1.3-2.5-2.899V30.49c0-1.37,0.979-1.99,2.229-1.99c0.21,0,0.74,0,0.971,0h31.05
								c1.6,0,2.9,0.9,2.9,2.5s-1.301,2.5-2.9,2.5H36.71l8.2,15.35l11.837-0.321c0,0,1.753-0.153,1.753-1.653c0-4.262,0-17.045,0-17.045
								c0-1.59,0.9-2.89,2.5-2.89S63.5,28.24,63.5,29.83z"/>
						</g>
						<circle fill="#FFFFFF" stroke="#000000" stroke-miterlimit="10" stroke-width="2" cx="-52.346" cy="8.045" r="4.878"/>
						<g>
							<path fill="#FFFFFF" stroke="#000000" stroke-miterlimit="10" stroke-width="2" d="M-115.5,18v17c0,1.1-0.75,2.939-2.471,2.939
								c-1.662,0-2.529-1.84-2.529-2.939v24.93c0,1.28-1.22,2.32-2.5,2.32s-2.5-1.04-2.5-2.32V37.5h-2l0.06,22.17
								c0,1.28-1.27,2.41-2.55,2.41c-1.29,0-2.57-1-2.57-2.29l0.06-24.021c0-0.765,0-0.77,0-0.77c0,1.1-0.5,2.945-2.506,2.945
								c-2.077,0-2.494-1.846-2.494-2.945V18c0-2.666,2.15-3.5,3.25-3.5c0.5,0,15.5,0,16,0C-117.15,14.5-115.5,15.501-115.5,18z"/>
						</g>
						<circle fill="#FFFFFF" stroke="#000000" stroke-miterlimit="10" stroke-width="2" cx="-125.346" cy="8.045" r="4.878"/>
						<circle fill="#FFFFFF" stroke="#000000" stroke-miterlimit="10" stroke-width="2" cx="-129.886" cy="22.115" r="2.423"/>
						<circle fill="#FFFFFF" stroke="#000000" stroke-miterlimit="10" stroke-width="2" cx="-123.281" cy="28.721" r="2.423"/>
						<line fill="none" stroke="#000000" stroke-miterlimit="10" stroke-width="2" x1="-132.309" y1="31.144" x2="-120.858" y2="19.692"/>
					</svg>
