<svg xmlns="http://www.w3.org/2000/svg" viewBox="0 0 520 99"><path fill="#29ABE2" d="M436.2 88c-.2 1.1-1.3 2-2.4 2h-48c-1.1 0-1.9-.9-1.7-2l8.5-43c.2-1.1 1.3-2 2.4-2h3c1.2 0 2 .9 1.7 2l-7 36c-.3 1.1.5 2 1.5 2h34c1 0 2.2-.9 2.4-2l15.7-71c.3-1.1 1.3-2 2.4-2h3.1c1.1 0 1.8.9 1.6 2l-17.2 78z"/><path d="M323 14c1.1 0 2.2-.9 2.4-2l.6-3c.2-1.1-.5-2-1.6-2h-48.2c-1.1 0-2.2.9-2.4 2l-8.2 37.8-.4 2c0 .2.9.2 2 .2h40.4c1.1 0 1.8.9 1.6 2l-5.7 30c-.2 1.1-1.3 2-2.4 2h-41.3c-1 0-2.2.9-2.4 2l-.6 3c-.3 1.1.4 2 1.5 2H307c1.1 0 2.2-.9 2.4-2l9.4-44c.2-1.1-.5-2-1.6-2h-40.8c-1.1 0-1.9-.9-1.6-2l4.8-24c.2-1.1 1.3-2 2.4-2h41zm64 0c1.1 0 2.2-.9 2.4-2l.6-3c.2-1.1-.5-2-1.6-2h-48.2c-1.1 0-2.2.9-2.4 2l-8.2 37.8-.4 2c0 .2.9.2 2 .2h40.4c1.1 0 1.8.9 1.6 2l-5.7 30c-.2 1.1-1.3 2-2.4 2h-41.3c-1 0-2.2.9-2.4 2l-.6 3c-.3 1.1.4 2 1.5 2H371c1.1 0 2.2-.9 2.4-2l9.4-44c.2-1.1-.5-2-1.6-2h-40.8c-1.1 0-1.9-.9-1.6-2l4.8-24c.2-1.1 1.3-2 2.4-2h41z"/><path fill="#29ABE2" d="M513 14c1.1 0 2.2-.9 2.4-2l.6-3c.2-1.1-.5-2-1.6-2h-48.2c-1.1 0-2.2.9-2.4 2l-8.2 37.8-.4 2c0 .2.9.2 2 .2h40.4c1.1 0 1.8.9 1.6 2l-5.7 30c-.2 1.1-1.3 2-2.4 2h-41.3c-1 0-2.2.9-2.4 2l-.6 3c-.3 1.1.4 2 1.5 2H497c1.1 0 2.2-.9 2.4-2l9.4-44c.2-1.1-.5-2-1.6-2h-40.8c-1.1 0-1.9-.9-1.6-2l4.8-24c.2-1.1 1.3-2 2.4-2h41z"/><path d="M224.8 14c-1 0-2.1.9-2.4 2l-5 24c-.3 1.1.4 2 1.5 2h19c1 0 1.8.9 1.5 2l-.6 3c-.3 1.1-1.4 2-2.5 2h-18.8c-1.1 0-2.2.9-2.4 2l-6.4 30c-.2 1.1.5 2 1.6 2H245c1.1 0 1.8.9 1.6 2l-.7 3c-.2 1.1-1.3 2-2.4 2h-41.8c-1.1 0-1.8-.9-1.6-2l16.6-79c.3-1.1 1.4-2 2.5-2h42.2c1 0 1.8.9 1.6 2l-.7 3c-.2 1.1-1.3 2-2.4 2h-35zM101.4 86zm57.3-61.7c.3-1 .8-1 1.1 0L184.1 88c.4 1 1.6 1.9 2.7 1.9h1.4c1 0 2.2-.9 2.4-2L208 9c.3-1.1-.5-2-1.6-2h-3.1c-1.1 0-2.2.9-2.5 2l-14 63.4c-.3 1-.8 1-1.2 0L161.5 9c-.4-1-1.6-1.9-2.7-1.9h-1.5c-1.1 0-2.2.9-2.4 2L138 88c-.2 1.1.5 2 1.6 2h3.2c1 0 2.2-.9 2.4-2l13.4-63.7zM68.7 90c1 0 2.2-.9 2.4-2l17-79c.3-1.1-.5-2-1.6-2h-3.1c-1.1 0-2.2.9-2.4 2L64 88c-.3 1.1.4 2 1.5 2h3.2zM33 14c-1 0-2.2.9-2.4 2l-5.2 24c-.2 1.1.5 2 1.6 2h23c1 0 1.8.9 1.5 2l-.6 3c-.3 1.1-1.3 2-2.4 2h-23c-1 0-2.2.9-2.4 2l-8 37c-.2 1.1-1.3 2-2.4 2H9.5c-1 0-1.8-.9-1.6-2L25 9c.3-1.1 1.4-2 2.5-2h43c1 0 1.8.9 1.6 2l-.7 3c-.2 1.1-1.3 2-2.4 2H33zm110.4-7c1 0 1.8.9 1.6 2l-.7 3c-.2 1.1-1.3 2-2.4 2H126c-1 0-2.2.9-2.4 2l-15.5 72c-.2 1.1-1.3 2-2.4 2h-3.2c-1 0-1.8-.9-1.5-2l15.5-72c.2-1.1-.5-2-1.6-2H98c-1 0-1.8-.9-1.5-2l.6-3c.3-1.1 1.3-2 2.4-2h43.9z"/></svg>